<svg xmlns="http://www.w3.org/2000/svg" width="22" height="33" fill="none"><g clip-path="url(#a)"><path fill="#0ACF83" d="M5.69 32.188a5.252 5.252 0 0 0 5.25-5.25v-5.25H5.69a5.252 5.252 0 0 0-5.25 5.25 5.252 5.252 0 0 0 5.25 5.25Z"/><path fill="#A259FF" d="M.44 16.438a5.252 5.252 0 0 1 5.25-5.25h5.25v10.5H5.69a5.252 5.252 0 0 1-5.25-5.25Z"/><path fill="#F24E1E" d="M.44 5.938A5.252 5.252 0 0 1 5.69.688h5.25v10.5H5.69a5.252 5.252 0 0 1-5.25-5.25Z"/><path fill="#FF7262" d="M10.94.688h5.25a5.252 5.252 0 0 1 5.25 5.25 5.252 5.252 0 0 1-5.25 5.25h-5.25V.688Z"/><path fill="#1ABCFE" d="M21.44 16.438a5.252 5.252 0 0 1-5.25 5.25 5.252 5.252 0 0 1-5.25-5.25 5.252 5.252 0 0 1 5.25-5.25 5.252 5.252 0 0 1 5.25 5.25Z"/></g><defs><clipPath id="a"><path fill="#fff" d="M.438.688h21.004v31.5H.437z"/></clipPath></defs></svg>